<svg width="22" height="20" viewBox="0 0 22 20" version="1.1" xmlns="http://www.w3.org/2000/svg" xmlns:xlink="http://www.w3.org/1999/xlink">
<title>LinkedIn</title>
<desc>Created using Figma</desc>
<g id="Canvas" transform="translate(-830 -29)">
<g id="LinkedIn">
<use xlink:href="#path0_fill" transform="translate(830 29)" fill="#CED7DC"/>
</g>
</g>
<defs>
<path id="path0_fill" fill-rule="evenodd" d="M 22 20L 17.1377 20L 17.1377 12.9692C 17.1377 11.1289 16.3771 9.87257 14.7046 9.87257C 13.4253 9.87257 12.7139 10.7204 12.3827 11.5374C 12.2586 11.8307 12.278 12.2392 12.278 12.6478L 12.278 20L 7.46094 20C 7.46094 20 7.52303 7.54562 7.46094 6.41352L 12.278 6.41352L 12.278 8.54582C 12.5625 7.6135 14.1018 6.2829 16.5582 6.2829C 19.6057 6.2829 22 8.23718 22 12.4454L 22 20ZM 2.5896 4.71409L 2.55856 4.71409C 1.00635 4.71409 0 3.67548 0 2.35897C 0 1.01684 1.0361 0 2.61936 0C 4.20132 0 5.17404 1.01428 5.20508 2.35513C 5.20508 3.67164 4.20132 4.71409 2.5896 4.71409ZM 0.554932 6.41352L 4.84291 6.41352L 4.84291 20L 0.554932 20L 0.554932 6.41352Z"/>
</defs>
</svg>
