<svg width="22" height="19" viewBox="0 0 22 19" version="1.1" xmlns="http://www.w3.org/2000/svg" xmlns:xlink="http://www.w3.org/1999/xlink">
<title>Twitter</title>
<desc>Created using Figma</desc>
<g id="Canvas" transform="translate(-830 70)">
<g id="Twitter">
<use xlink:href="#path0_fill" transform="translate(830 -70)" fill="#CED7DC"/>
</g>
</g>
<defs>
<path id="path0_fill" fill-rule="evenodd" d="M 21.3932 0.351254C 20.5203 0.900356 19.5558 1.2997 18.5249 1.51338C 17.7037 0.581974 16.5301 0 15.2308 0C 12.7402 0 10.7189 2.1477 10.7189 4.79642C 10.7189 5.17263 10.7577 5.53728 10.8352 5.88853C 7.08408 5.68825 3.75879 3.78101 1.53136 0.875396C 1.1425 1.58643 0.92046 2.4113 0.92046 3.28974C 0.92046 4.95287 1.71698 6.4212 2.92879 7.28137C 2.18984 7.25824 1.49259 7.04031 0.882867 6.68357L 0.882867 6.74201C 0.882867 9.06687 2.4389 11.0064 4.50538 11.4453C 4.12709 11.5579 3.72766 11.6145 3.31589 11.6145C 3.02513 11.6145 2.74141 11.5853 2.4665 11.5293C 3.04098 13.4341 4.70686 14.8215 6.6823 14.8586C 5.13801 16.1455 3.19077 16.9126 1.07671 16.9126C 0.71252 16.9126 0.352442 16.8906 0 16.8468C 1.99717 18.2056 4.37086 19 6.91902 19C 15.222 19 19.7608 11.6924 19.7608 5.35343C 19.7608 5.14463 19.7573 4.93643 19.7497 4.73189C 20.6314 4.05556 21.3973 3.21121 22 2.24937C 21.1917 2.63045 20.3212 2.88857 19.4084 3.00423C 20.3406 2.4113 21.056 1.47137 21.3932 0.351254Z"/>
</defs>
</svg>
