<svg width="25" height="23" viewBox="0 0 25 23" version="1.1" xmlns="http://www.w3.org/2000/svg" xmlns:xlink="http://www.w3.org/1999/xlink">
<title>GitHub</title>
<desc>Created using Figma</desc>
<g id="Canvas" transform="translate(-3254 -5872)">
<g id="Icon/Social/GitHub">
<g id="Github">
<use xlink:href="#path0_fill" transform="translate(3254.91 5872)" fill="#CED7DC"/>
</g>
</g>
</g>
<defs>
<path id="path0_fill" fill-rule="evenodd" d="M 11.5816 0C 5.18597 0 0 5.27879 0 11.792C 0 17.0008 3.31832 21.4203 7.92155 22.9796C 8.50067 23.088 8.71204 22.7239 8.71204 22.4115C 8.71204 22.1314 8.70191 21.39 8.69612 20.4062C 5.47407 21.1188 4.79434 18.8254 4.79434 18.8254C 4.26807 17.4636 3.50871 17.101 3.50871 17.101C 2.45689 16.3692 3.58833 16.3839 3.58833 16.3839C 4.75018 16.4672 5.36187 17.5992 5.36187 17.5992C 6.39559 19.401 8.07285 18.8807 8.73304 18.5786C 8.838 17.8166 9.13769 17.297 9.46851 17.0022C 6.89652 16.7045 4.19278 15.6934 4.19278 11.1751C 4.19278 9.88769 4.64377 8.83532 5.38504 8.01067C 5.26559 7.71221 4.86818 6.51392 5.49796 4.89042C 5.49796 4.89042 6.47087 4.57353 8.68309 6.09902C 9.6075 5.8374 10.5978 5.70696 11.583 5.7018C 12.5668 5.70696 13.5578 5.8374 14.4829 6.09902C 16.6937 4.57353 17.6644 4.89042 17.6644 4.89042C 18.2964 6.51392 17.899 7.71221 17.7795 8.01067C 18.5222 8.83532 18.9703 9.88769 18.9703 11.1751C 18.9703 15.7045 16.2622 16.7016 13.6823 16.9934C 14.0978 17.3574 14.4684 18.0767 14.4684 19.177C 14.4684 20.7533 14.454 22.0246 14.454 22.4115C 14.454 22.7269 14.6624 23.0939 15.2502 22.9782C 19.8491 21.4158 23.1646 16.9993 23.1646 11.792C 23.1646 5.27879 17.9786 0 11.5816 0Z"/>
</defs>
</svg>
