<svg width="28" height="18" viewBox="0 0 28 18" version="1.1" xmlns="http://www.w3.org/2000/svg" xmlns:xlink="http://www.w3.org/1999/xlink">
<title>Google+</title>
<desc>Created using Figma</desc>
<g id="Canvas" transform="translate(-827 170)">
<g id="Google+">
<use xlink:href="#path0_fill" transform="translate(827 -170)" fill="#CED7DC"/>
</g>
</g>
<defs>
<path id="path0_fill" fill-rule="evenodd" d="M 9.12671 10.7822L 9.12671 7.2178L 17.8917 7.2178C 18.5019 11.5308 16.6605 18 9.12671 18C 4.08661 18 0 13.9702 0 8.99965C 0 4.02913 4.08661 0 9.12671 0C 11.4915 0 13.6462 0.886719 15.2676 2.34192C 14.0118 3.51183 13.6088 3.95816 13.2667 4.33716C 13.0886 4.5345 12.9269 4.71356 12.67 4.96701C 11.7322 4.20227 10.7097 3.65341 9.12671 3.65341C 6.13239 3.65341 3.79535 6.0472 3.79535 8.99965C 3.79535 11.9528 6.13239 14.3466 9.12671 14.3466C 12.0854 14.3466 13.2874 13.0884 14.0607 10.7773C 12.633 10.7773 9.12671 10.7822 9.12671 10.7822ZM 24.719 3L 24.719 6.28098L 28 6.28098L 28 8.62463L 24.719 8.62463L 24.719 12L 22.3755 12L 22.3755 8.62463L 19 8.62463L 19 6.28098L 22.3755 6.28098L 22.3755 3L 24.719 3Z"/>
</defs>
</svg>
