<svg width="31" height="26" viewBox="0 0 31 26" version="1.1" xmlns="http://www.w3.org/2000/svg" xmlns:xlink="http://www.w3.org/1999/xlink">
<title>Page 1</title>
<desc>Created using Figma</desc>
<g id="Canvas" transform="translate(-826 25)">
<g id="Page 1">
<g id="Group 3">
<g id="Fill 1">
<use xlink:href="#path0_fill" transform="translate(826 -24.5237)" fill="#FFFFFF"/>
</g>
<g id="Fill 4">
<use xlink:href="#path1_fill" transform="translate(836 -5.14285)" fill="#FFFFFF"/>
</g>
<g id="Fill 6">
<use xlink:href="#path2_fill" transform="translate(834.412 -12.101)" fill="#FFFFFF"/>
</g>
<g id="Fill 8">
<use xlink:href="#path3_fill" transform="translate(843.472 -12.101)" fill="#FFFFFF"/>
</g>
</g>
</g>
</g>
<defs>
<path id="path0_fill" fill-rule="evenodd" d="M 28.2964 13.8676C 28.2452 13.7423 28.1863 13.6078 28.12 13.4666L 28.0611 13.3747C 28.0191 13.2578 27.9426 13.1157 27.9006 13.0656L 27.8334 12.9403C 27.7754 12.8568 27.7241 12.7649 27.6661 12.6813C 27.5897 12.556 27.5065 12.4307 27.4132 12.3138C 27.3552 12.2219 27.2795 12.13 27.1871 12.0214C 27.0694 11.8543 26.9509 11.7123 26.8341 11.5953C 26.682 11.4199 26.5307 11.2612 26.3627 11.1108C 26.3383 11.0857 26.3131 11.0607 26.2795 11.0189C 26.1282 10.8769 25.9601 10.7349 25.8416 10.643C 26.1442 10.4759 26.4812 10.3923 26.8257 10.3923C 27.9603 10.3923 28.8931 11.3113 28.8931 12.4391C 28.8931 12.9737 28.6738 13.4917 28.2964 13.8676ZM 6.66442 10.9521L 7.08462 10.7098C 7.23505 10.6263 7.37792 10.5427 7.57121 10.4508C 7.71492 10.3673 7.85779 10.3005 8.05108 10.2253C 8.15193 10.1668 8.26119 10.125 8.36203 10.0749L 8.55533 9.99136C 8.84863 9.86605 9.19404 9.74074 9.61424 9.59872L 9.76551 9.5486C 9.87476 9.51518 9.99242 9.48176 10.126 9.44835L 10.4294 9.35645C 10.4958 9.33975 10.5631 9.32304 10.6647 9.29798C 11.3623 9.12254 12.0674 8.98888 12.7742 8.89699C 13.0599 8.86357 13.3448 8.83015 13.7314 8.80509L 13.8574 8.79674C 14.0264 8.78003 14.1852 8.77168 14.3709 8.77168C 15.5979 8.72155 16.8073 8.78838 17.9763 8.96382C 18.0595 8.97217 18.1444 8.98888 18.236 9.00559L 18.3965 9.03065C 18.8503 9.11419 19.3041 9.21444 19.7243 9.31468C 19.8747 9.35645 20.0176 9.39822 20.1781 9.44835L 20.674 9.59872C 20.7832 9.63214 20.8916 9.66555 21.0269 9.71568C 21.3799 9.84099 21.7161 9.97465 22.0102 10.1C 22.3464 10.2587 22.6817 10.4091 23.0103 10.5928C 23.1439 10.6597 23.2624 10.7265 23.3792 10.7933C 23.5221 10.8769 23.6566 10.9688 23.7994 11.0607C 23.9347 11.1442 24.0608 11.2194 24.2196 11.328C 24.3289 11.4115 24.4297 11.4867 24.539 11.587C 24.5903 11.6204 24.6323 11.6454 24.6575 11.6705C 24.6911 11.7039 24.7491 11.754 24.7827 11.7708L 24.892 11.8626C 24.9928 11.9545 25.1021 12.0464 25.2113 12.155L 25.2786 12.2135C 25.4214 12.3472 25.5475 12.4808 25.6828 12.6312C 25.7752 12.7231 25.8416 12.8066 25.9181 12.9152L 25.9677 12.9821C 26.0358 13.0573 26.0946 13.1325 26.1526 13.216C 26.2375 13.3162 26.2954 13.4081 26.3627 13.5167L 26.7249 14.1516C 26.8005 14.3271 26.8762 14.5025 26.9434 14.6855L 27.0266 14.9703C 27.0602 15.0539 27.0863 15.1374 27.1115 15.2711C 27.1451 15.3797 27.1611 15.4874 27.1787 15.6136L 27.1871 15.7138C 27.2031 15.7723 27.2123 15.8475 27.2207 15.9561C 27.2283 16.073 27.2367 16.19 27.2367 16.3153C 27.2367 20.4839 21.8169 23.8748 15.1517 23.8748C 8.49566 23.8748 3.08429 20.4839 3.08429 16.3153C 3.08429 16.1984 3.08429 16.0898 3.09269 15.9728L 3.12631 15.6554C 3.15152 15.4874 3.18514 15.3379 3.22632 15.1708C 3.25237 15.0539 3.27674 14.9286 3.3196 14.82L 3.36919 14.6445C 3.39524 14.6028 3.41205 14.561 3.43642 14.5109L 3.67257 13.9921C 3.68938 13.9428 3.723 13.8927 3.76502 13.8166C 3.90705 13.5585 4.04235 13.3497 4.17682 13.1742L 4.42894 12.8651C 4.47936 12.7983 4.52979 12.7398 4.60542 12.6646L 4.67266 12.5811C 4.81552 12.4307 4.95755 12.2803 5.12647 12.13C 5.27691 11.988 5.42902 11.8459 5.6055 11.7123L 6.31061 11.186C 6.40389 11.1275 6.49634 11.0607 6.59718 11.0022L 6.66442 10.9521ZM 2.94901 12.2386C 2.7221 12.5393 2.55486 12.8066 2.41955 13.0489C 2.36157 13.1324 2.31871 13.2243 2.27753 13.3162L 2.20945 13.4248C 2.15146 13.5585 2.0918 13.6922 2.07583 13.7339C 2.06742 13.7506 2.05902 13.7674 2.05062 13.7832C 1.73126 13.4165 1.54553 12.9403 1.54553 12.4391C 1.54553 11.3113 2.47082 10.3923 3.60537 10.3923C 3.92472 10.3923 4.23567 10.4592 4.513 10.6012C 4.37013 10.7265 4.21886 10.8518 4.06675 10.9938C 3.8827 11.1609 3.71462 11.3363 3.51292 11.5452L 3.42888 11.6454C 3.3524 11.729 3.28601 11.8125 3.24315 11.871L 3.1423 11.9963C 3.10112 12.0464 3.06667 12.0966 3.02549 12.1467L 2.94901 12.2386ZM 25.4055 1.53713C 26.2123 1.53713 26.8594 2.18874 26.8594 2.99072C 26.8594 3.79271 26.2123 4.43596 25.4055 4.43596C 24.5987 4.43596 23.9423 3.79271 23.9423 2.99072C 23.9423 2.18874 24.5987 1.53713 25.4055 1.53713ZM 30.4395 12.4391C 30.4395 10.4592 28.8167 8.83851 26.8257 8.83851C 25.9677 8.83851 25.1533 9.13925 24.5146 9.6739C 24.4045 9.60707 24.2953 9.54024 24.186 9.47341C 24.0179 9.37316 23.8667 9.28962 23.7322 9.22279C 23.3876 9.039 23.0263 8.85521 22.6405 8.67978L 22.5136 8.62966C 22.1943 8.50435 21.8673 8.37068 21.5732 8.27879C 21.4295 8.21196 21.2782 8.16183 21.1278 8.12006L 20.6479 7.97805C 20.4714 7.91121 20.2949 7.86944 20.1193 7.82767C 19.6907 7.71072 19.2108 7.60212 18.6486 7.51022L 18.5217 7.48516C 18.3965 7.4601 18.262 7.44339 18.1687 7.43504C 17.5561 7.33479 16.9417 7.27631 16.303 7.2429L 17.9342 2.11356L 22.3884 3.16616C 22.48 4.7367 23.7994 5.9898 25.4055 5.9898C 27.0695 5.9898 28.4141 4.64481 28.4141 2.99072C 28.4141 1.33664 27.0695 0 25.4055 0C 24.2709 0 23.2112 0.65161 22.6993 1.64573L 17.5897 0.459469C 17.1947 0.359221 16.7989 0.576424 16.6644 0.977415L 14.6819 7.20948C 14.555 7.20948 14.4121 7.21783 14.2701 7.22619C 14.0844 7.23454 13.9003 7.2429 13.7818 7.2596C 13.6641 7.2596 13.5549 7.26796 13.5473 7.27631C 13.2271 7.29302 12.917 7.32644 12.5893 7.35985C 11.7405 7.47681 10.9664 7.62718 10.3118 7.79426C 10.1933 7.81932 10.0597 7.86109 9.91594 7.89451L 9.69828 7.96134C 9.50498 8.01146 9.31925 8.06994 9.14277 8.12842C 8.75702 8.25373 8.35363 8.4041 7.95023 8.57118C 7.75694 8.64636 7.57121 8.7299 7.38716 8.81344C 7.19387 8.89698 7.00058 8.99723 6.85771 9.08077C 6.68122 9.16431 6.49633 9.26456 6.30304 9.38151L 5.85762 9.63213C 5.21892 9.12254 4.42894 8.83851 3.60534 8.83851C 1.61358 8.83851 0 10.4592 0 12.4391C 0 13.6337 0.605092 14.7531 1.58837 15.4131C 1.57156 15.5467 1.55475 15.6963 1.54551 15.8809C 1.53794 16.0146 1.5287 16.1649 1.5287 16.3153C 1.5287 21.3352 7.63844 25.4211 15.1517 25.4211C 22.6741 25.4211 28.783 21.3352 28.783 16.3153C 28.783 16.1566 28.783 16.0146 28.7671 15.8308C 28.7671 15.7222 28.7503 15.6052 28.7335 15.4874C 29.7915 14.8275 30.4395 13.6838 30.4395 12.4391Z"/>
<path id="path1_fill" fill-rule="evenodd" d="M 10.4389 0.768566C 10.4389 0.977415 10.3633 1.16956 10.212 1.32828L 10.2036 1.32828C 9.14467 2.37253 7.52269 2.8746 5.23763 2.8746C 2.90886 2.8746 1.28688 2.37253 0.227971 1.32828C -0.0745749 1.01083 -0.0745749 0.5263 0.219567 0.226393C 0.37084 0.0843752 0.572537 0 0.774234 0L 0.782638 0C 0.99274 0 1.18603 0.0843751 1.3289 0.233911C 2.06846 0.969061 3.33747 1.32828 5.20401 1.32828C 7.09492 1.32828 8.36309 0.969061 9.10265 0.226393C 9.26317 0.0751858 9.48083 0 9.68337 0C 9.88423 0.00918937 10.0775 0.0918937 10.212 0.233911C 10.3549 0.36841 10.4389 0.559716 10.4389 0.768566Z"/>
<path id="path2_fill" fill-rule="evenodd" d="M 4.5634 2.26309C 4.5634 3.51619 3.53811 4.52702 2.2775 4.52702C 1.01689 4.52702 0 3.51619 0 2.26309C 0 1.01 1.01689 0 2.2775 0C 3.53811 0 4.5634 1.01 4.5634 2.26309Z"/>
<path id="path3_fill" fill-rule="evenodd" d="M 4.55584 2.26309C 4.55584 3.51619 3.53811 4.52702 2.2775 4.52702C 1.01689 4.52702 0 3.51619 0 2.26309C 0 1.01 1.01689 0 2.2775 0C 3.53811 0 4.55584 1.01 4.55584 2.26309Z"/>
</defs>
</svg>
