<?xml version="1.0" encoding="utf-8"?>
<!-- Generator: Adobe Illustrator 21.0.2, SVG Export Plug-In . SVG Version: 6.00 Build 0)  -->
<svg version="1.1" id="Layer_1" xmlns="http://www.w3.org/2000/svg" xmlns:xlink="http://www.w3.org/1999/xlink" x="0px" y="0px"
	 viewBox="0 0 748 154" style="enable-background:new 0 0 748 154;" xml:space="preserve">
<style type="text/css">
	.st0{fill:#FFFFFF;}
	.st1{fill:#FD0010;}
</style>
<g>
	<ellipse class="st0" cx="36.6" cy="75.4" rx="7.7" ry="34.2"/>
	<ellipse class="st0" cx="9.9" cy="77" rx="4.8" ry="19.7"/>
	<path class="st1" d="M67,4.8c-13.8,0-25,31.6-25,70.6c0,39,11.2,70.6,25,70.6c13.8,0,25-31.6,25-70.6C92,36.4,80.8,4.8,67,4.8z
		 M76.8,116.2c-6.5,0-11.8-18.3-11.8-40.9c0-22.6,5.3-40.9,11.8-40.9c6.5,0,11.8,18.3,11.8,40.9C88.6,97.9,83.3,116.2,76.8,116.2z"
		/>
	<ellipse class="st0" cx="92.5" cy="75.4" rx="7.7" ry="34.2"/>
	<ellipse class="st0" cx="118.1" cy="75.4" rx="3.8" ry="17.1"/>
	<path class="st0" d="M181.1,60.3c-0.3,0.5-0.7,0.9-1.1,1.2c-0.4,0.2-0.9,0.3-1.4,0.3c-0.6,0-1.3-0.2-2-0.5
		c-0.7-0.3-1.5-0.7-2.4-1.2c-0.9-0.4-2-0.8-3.1-1.1s-2.6-0.5-4.2-0.5c-2.5,0-4.4,0.5-5.9,1.6c-1.4,1.1-2.1,2.4-2.1,4.1
		c0,1.1,0.4,2.1,1.1,2.8c0.7,0.8,1.7,1.4,2.9,2c1.2,0.6,2.6,1.1,4.1,1.6c1.5,0.5,3.1,1,4.7,1.5c1.6,0.5,3.2,1.2,4.7,1.9
		c1.5,0.7,2.9,1.6,4.1,2.7c1.2,1.1,2.2,2.4,2.9,3.9c0.7,1.5,1.1,3.3,1.1,5.4c0,2.5-0.5,4.8-1.4,7c-0.9,2.1-2.3,4-4,5.5
		c-1.8,1.6-4,2.8-6.6,3.6c-2.6,0.9-5.6,1.3-9,1.3c-1.8,0-3.6-0.2-5.3-0.5c-1.7-0.3-3.4-0.8-5-1.4c-1.6-0.6-3.1-1.3-4.4-2
		c-1.3-0.8-2.5-1.6-3.6-2.6l2.9-4.8c0.4-0.6,0.8-1,1.3-1.3c0.5-0.3,1.2-0.5,1.9-0.5c0.8,0,1.5,0.2,2.2,0.7c0.7,0.4,1.5,0.9,2.4,1.4
		c0.9,0.5,2,1,3.2,1.4c1.2,0.4,2.8,0.7,4.7,0.7c1.5,0,2.8-0.2,3.9-0.5c1.1-0.4,2-0.8,2.7-1.4s1.2-1.3,1.5-2c0.3-0.8,0.5-1.6,0.5-2.4
		c0-1.2-0.4-2.2-1.1-3c-0.7-0.8-1.7-1.5-2.9-2c-1.2-0.6-2.6-1.1-4.1-1.6c-1.6-0.5-3.1-1-4.8-1.5c-1.6-0.5-3.2-1.2-4.8-1.9
		c-1.6-0.7-2.9-1.7-4.1-2.8c-1.2-1.1-2.2-2.5-2.9-4.1c-0.7-1.6-1.1-3.6-1.1-5.9c0-2.1,0.4-4.2,1.3-6.1c0.9-1.9,2.1-3.6,3.8-5.1
		c1.7-1.4,3.7-2.6,6.2-3.5c2.5-0.9,5.3-1.3,8.6-1.3c3.6,0,6.9,0.6,9.9,1.8c3,1.2,5.4,2.8,7.4,4.7L181.1,60.3z"/>
	<path class="st0" d="M212.9,103.4c-4.5,0-8-1.3-10.5-3.9c-2.5-2.6-3.7-6.1-3.7-10.7V59.5h-5.3c-0.7,0-1.3-0.2-1.8-0.7
		c-0.5-0.4-0.7-1.1-0.7-2v-5l8.4-1.4l2.7-14.3c0.1-0.7,0.5-1.2,0.9-1.6c0.5-0.4,1.1-0.6,1.9-0.6h6.5v16.5h13.8v9h-13.8V88
		c0,1.6,0.4,2.9,1.2,3.8c0.8,0.9,1.9,1.4,3.3,1.4c0.8,0,1.4-0.1,2-0.3c0.5-0.2,1-0.4,1.4-0.6c0.4-0.2,0.7-0.4,1-0.6
		c0.3-0.2,0.6-0.3,0.9-0.3c0.4,0,0.7,0.1,0.9,0.3c0.2,0.2,0.5,0.5,0.8,0.8l3.8,6.1c-1.8,1.5-4,2.7-6.3,3.5
		C217.9,103,215.4,103.4,212.9,103.4z"/>
	<path class="st0" d="M233.2,102.5V50.1h7.4c1.3,0,2.2,0.2,2.7,0.7c0.5,0.5,0.9,1.3,1,2.5l0.8,6.3c1.9-3.2,4.1-5.8,6.6-7.7
		c2.5-1.9,5.4-2.8,8.5-2.8c2.6,0,4.7,0.6,6.4,1.8l-1.6,9.5c-0.1,0.6-0.3,1-0.7,1.3c-0.3,0.3-0.8,0.4-1.4,0.4c-0.5,0-1.2-0.1-2.1-0.4
		c-0.9-0.2-2.1-0.4-3.5-0.4c-2.6,0-4.9,0.7-6.7,2.2c-1.9,1.4-3.5,3.6-4.8,6.4v32.7H233.2z"/>
	<path class="st0" d="M292.5,49.3c3.3,0,6.3,0.5,9.1,1.6c2.8,1.1,5.2,2.6,7.2,4.6c2,2,3.6,4.5,4.7,7.5c1.1,2.9,1.7,6.3,1.7,10.1
		c0,1,0,1.7-0.1,2.4c-0.1,0.6-0.2,1.1-0.5,1.5c-0.2,0.4-0.5,0.6-0.9,0.8c-0.4,0.2-0.9,0.2-1.4,0.2h-32.4c0.4,5.4,1.8,9.3,4.3,11.9
		c2.5,2.5,5.9,3.8,10,3.8c2,0,3.8-0.2,5.3-0.7c1.5-0.5,2.8-1,3.9-1.6c1.1-0.6,2.1-1.1,2.9-1.6c0.8-0.5,1.6-0.7,2.4-0.7
		c0.5,0,1,0.1,1.3,0.3c0.4,0.2,0.7,0.5,1,0.9l3.7,4.6c-1.4,1.6-3,3-4.7,4.1c-1.7,1.1-3.6,2-5.4,2.7c-1.9,0.7-3.8,1.1-5.8,1.4
		c-2,0.3-3.9,0.4-5.7,0.4c-3.6,0-7-0.6-10.2-1.8c-3.1-1.2-5.9-3-8.2-5.4c-2.3-2.4-4.1-5.3-5.5-8.8c-1.3-3.5-2-7.5-2-12.1
		c0-3.6,0.6-6.9,1.7-10.1c1.2-3.2,2.8-5.9,5-8.2c2.2-2.3,4.8-4.2,7.9-5.5C285.1,49.9,288.6,49.3,292.5,49.3z M292.8,58.3
		c-3.7,0-6.6,1-8.6,3.1c-2.1,2.1-3.4,5-4,8.8h23.7c0-1.6-0.2-3.2-0.7-4.6c-0.4-1.4-1.1-2.7-2-3.8c-0.9-1.1-2.1-2-3.5-2.6
		C296.3,58.6,294.7,58.3,292.8,58.3z"/>
	<path class="st0" d="M362.5,102.5h-5.7c-1.2,0-2.1-0.2-2.8-0.5c-0.7-0.4-1.2-1.1-1.5-2.2l-1.1-3.7c-1.3,1.2-2.6,2.2-3.9,3.1
		c-1.3,0.9-2.6,1.7-4,2.3c-1.4,0.6-2.8,1.1-4.3,1.4c-1.5,0.3-3.2,0.5-5.1,0.5c-2.2,0-4.3-0.3-6.1-0.9c-1.9-0.6-3.5-1.5-4.8-2.7
		c-1.3-1.2-2.4-2.7-3.1-4.5c-0.8-1.8-1.1-3.8-1.1-6.2c0-2,0.5-3.9,1.6-5.9c1-1.9,2.8-3.7,5.2-5.2c2.4-1.6,5.6-2.8,9.7-3.9
		c4-1,9-1.5,15-1.5v-3.1c0-3.5-0.7-6.2-2.2-7.9c-1.5-1.7-3.6-2.6-6.5-2.6c-2,0-3.8,0.2-5.1,0.7c-1.4,0.5-2.5,1-3.6,1.6
		c-1,0.6-1.9,1.1-2.8,1.6c-0.9,0.5-1.8,0.7-2.8,0.7c-0.9,0-1.6-0.2-2.2-0.7c-0.6-0.4-1.1-1-1.5-1.6l-2.3-4c6-5.5,13.3-8.3,21.8-8.3
		c3.1,0,5.8,0.5,8.2,1.5c2.4,1,4.4,2.4,6.1,4.2c1.7,1.8,2.9,3.9,3.8,6.4c0.9,2.5,1.3,5.2,1.3,8.2V102.5z M338,94.7
		c1.3,0,2.5-0.1,3.6-0.4c1.1-0.2,2.1-0.6,3.1-1.1c1-0.5,1.9-1,2.8-1.7c0.9-0.7,1.8-1.5,2.7-2.4v-8.8c-3.7,0-6.8,0.2-9.2,0.7
		c-2.5,0.5-4.5,1.1-6,1.8c-1.5,0.7-2.6,1.6-3.2,2.5c-0.6,1-0.9,2-0.9,3.1c0,2.2,0.7,3.8,2,4.8C334.1,94.2,335.9,94.7,338,94.7z"/>
	<path class="st0" d="M370.9,102.5V50.1h7.7c1.6,0,2.7,0.8,3.2,2.3l0.8,3.9c0.9-1,1.9-2,2.9-2.8c1-0.9,2.1-1.6,3.2-2.2
		c1.1-0.6,2.4-1.1,3.7-1.5c1.3-0.4,2.8-0.5,4.3-0.5c3.3,0,6,0.9,8.2,2.7c2.1,1.8,3.7,4.2,4.8,7.1c0.8-1.7,1.8-3.2,3.1-4.5
		c1.2-1.2,2.6-2.3,4-3c1.5-0.8,3-1.4,4.7-1.7c1.7-0.4,3.3-0.6,5-0.6c2.9,0,5.5,0.4,7.7,1.3c2.2,0.9,4.1,2.2,5.7,3.9
		c1.5,1.7,2.7,3.8,3.5,6.2c0.8,2.5,1.2,5.3,1.2,8.4v33.4h-12.6V69.1c0-3.3-0.7-5.9-2.2-7.5c-1.5-1.7-3.6-2.5-6.4-2.5
		c-1.3,0-2.5,0.2-3.6,0.7c-1.1,0.4-2.1,1.1-2.9,1.9c-0.8,0.8-1.5,1.9-2,3.1c-0.5,1.3-0.7,2.7-0.7,4.3v33.4h-12.7V69.1
		c0-3.5-0.7-6.1-2.1-7.7c-1.4-1.6-3.5-2.4-6.3-2.4c-1.8,0-3.5,0.5-5.1,1.4c-1.6,0.9-3.1,2.1-4.4,3.7v38.4H370.9z"/>
	<path class="st0" d="M491.8,102.5c-1.6,0-2.7-0.8-3.2-2.3l-1-5.1c-1.1,1.2-2.2,2.3-3.4,3.3c-1.2,1-2.5,1.8-3.9,2.6
		c-1.4,0.7-2.9,1.3-4.4,1.7c-1.6,0.4-3.3,0.6-5.1,0.6c-2.9,0-5.5-0.6-7.9-1.8c-2.4-1.2-4.4-2.9-6.2-5.2c-1.7-2.3-3.1-5.1-4-8.4
		c-0.9-3.3-1.4-7.2-1.4-11.5c0-3.9,0.5-7.5,1.6-10.8c1.1-3.3,2.6-6.2,4.6-8.7c2-2.5,4.3-4.4,7.1-5.8c2.8-1.4,5.9-2.1,9.3-2.1
		c2.9,0,5.4,0.5,7.5,1.4c2.1,0.9,3.9,2.2,5.6,3.8V26.6h12.6v76H491.8z M475,93.3c2.6,0,4.9-0.5,6.7-1.6c1.8-1.1,3.6-2.6,5.2-4.7
		V63.5c-1.4-1.7-3-3-4.7-3.7c-1.7-0.7-3.5-1.1-5.4-1.1c-1.9,0-3.6,0.4-5.2,1.1c-1.6,0.7-2.9,1.8-3.9,3.2c-1.1,1.4-1.9,3.3-2.5,5.5
		c-0.6,2.2-0.9,4.9-0.9,7.9c0,3.1,0.2,5.7,0.7,7.8c0.5,2.1,1.2,3.9,2.1,5.2c0.9,1.3,2,2.3,3.4,2.9C471.9,93,473.4,93.3,475,93.3z"/>
	<path class="st0" d="M550.2,102.5h-5.7c-1.2,0-2.1-0.2-2.8-0.5c-0.7-0.4-1.2-1.1-1.5-2.2l-1.1-3.7c-1.3,1.2-2.6,2.2-3.9,3.1
		c-1.3,0.9-2.6,1.7-4,2.3c-1.4,0.6-2.8,1.1-4.3,1.4c-1.5,0.3-3.2,0.5-5.1,0.5c-2.2,0-4.3-0.3-6.1-0.9c-1.9-0.6-3.5-1.5-4.8-2.7
		c-1.3-1.2-2.4-2.7-3.1-4.5c-0.8-1.8-1.1-3.8-1.1-6.2c0-2,0.5-3.9,1.6-5.9c1-1.9,2.8-3.7,5.2-5.2c2.4-1.6,5.6-2.8,9.7-3.9
		c4-1,9-1.5,15-1.5v-3.1c0-3.5-0.7-6.2-2.2-7.9c-1.5-1.7-3.6-2.6-6.5-2.6c-2,0-3.8,0.2-5.1,0.7c-1.4,0.5-2.5,1-3.6,1.6
		c-1,0.6-1.9,1.1-2.8,1.6c-0.9,0.5-1.8,0.7-2.8,0.7c-0.9,0-1.6-0.2-2.2-0.7c-0.6-0.4-1.1-1-1.5-1.6l-2.3-4c6-5.5,13.3-8.3,21.8-8.3
		c3.1,0,5.8,0.5,8.2,1.5c2.4,1,4.4,2.4,6.1,4.2c1.7,1.8,2.9,3.9,3.8,6.4c0.9,2.5,1.3,5.2,1.3,8.2V102.5z M525.7,94.7
		c1.3,0,2.5-0.1,3.6-0.4c1.1-0.2,2.1-0.6,3.1-1.1c1-0.5,1.9-1,2.8-1.7c0.9-0.7,1.8-1.5,2.7-2.4v-8.8c-3.7,0-6.8,0.2-9.2,0.7
		c-2.5,0.5-4.5,1.1-6,1.8c-1.5,0.7-2.6,1.6-3.2,2.5c-0.6,1-0.9,2-0.9,3.1c0,2.2,0.7,3.8,2,4.8C521.9,94.2,523.6,94.7,525.7,94.7z"/>
	<path class="st0" d="M575.8,103.4c-4.5,0-8-1.3-10.5-3.9c-2.5-2.6-3.7-6.1-3.7-10.7V59.5h-5.3c-0.7,0-1.3-0.2-1.8-0.7
		c-0.5-0.4-0.7-1.1-0.7-2v-5l8.4-1.4l2.7-14.3c0.1-0.7,0.5-1.2,0.9-1.6c0.5-0.4,1.1-0.6,1.9-0.6h6.5v16.5h13.8v9h-13.8V88
		c0,1.6,0.4,2.9,1.2,3.8c0.8,0.9,1.9,1.4,3.3,1.4c0.8,0,1.4-0.1,2-0.3c0.5-0.2,1-0.4,1.4-0.6c0.4-0.2,0.7-0.4,1-0.6
		c0.3-0.2,0.6-0.3,0.9-0.3c0.4,0,0.7,0.1,0.9,0.3c0.2,0.2,0.5,0.5,0.8,0.8l3.8,6.1c-1.8,1.5-4,2.7-6.3,3.5
		C580.8,103,578.3,103.4,575.8,103.4z"/>
	<path class="st0" d="M637.2,102.5h-5.7c-1.2,0-2.1-0.2-2.8-0.5c-0.7-0.4-1.2-1.1-1.5-2.2l-1.1-3.7c-1.3,1.2-2.6,2.2-3.9,3.1
		c-1.3,0.9-2.6,1.7-4,2.3c-1.4,0.6-2.8,1.1-4.3,1.4c-1.5,0.3-3.2,0.5-5.1,0.5c-2.2,0-4.3-0.3-6.1-0.9c-1.9-0.6-3.5-1.5-4.8-2.7
		c-1.3-1.2-2.4-2.7-3.1-4.5c-0.8-1.8-1.1-3.8-1.1-6.2c0-2,0.5-3.9,1.6-5.9c1-1.9,2.8-3.7,5.2-5.2c2.4-1.6,5.6-2.8,9.7-3.9
		c4-1,9-1.5,15-1.5v-3.1c0-3.5-0.7-6.2-2.2-7.9c-1.5-1.7-3.6-2.6-6.5-2.6c-2,0-3.8,0.2-5.1,0.7c-1.4,0.5-2.5,1-3.6,1.6
		c-1,0.6-1.9,1.1-2.8,1.6c-0.9,0.5-1.8,0.7-2.8,0.7c-0.9,0-1.6-0.2-2.2-0.7c-0.6-0.4-1.1-1-1.5-1.6l-2.3-4c6-5.5,13.3-8.3,21.8-8.3
		c3.1,0,5.8,0.5,8.2,1.5c2.4,1,4.4,2.4,6.1,4.2c1.7,1.8,2.9,3.9,3.8,6.4c0.9,2.5,1.3,5.2,1.3,8.2V102.5z M612.7,94.7
		c1.3,0,2.5-0.1,3.6-0.4c1.1-0.2,2.1-0.6,3.1-1.1c1-0.5,1.9-1,2.8-1.7c0.9-0.7,1.8-1.5,2.7-2.4v-8.8c-3.7,0-6.8,0.2-9.2,0.7
		c-2.5,0.5-4.5,1.1-6,1.8c-1.5,0.7-2.6,1.6-3.2,2.5c-0.6,1-0.9,2-0.9,3.1c0,2.2,0.7,3.8,2,4.8C608.8,94.2,610.5,94.7,612.7,94.7z"/>
	<path class="st1" d="M645.9,95.6c0-1.1,0.2-2.1,0.6-3c0.4-1,0.9-1.8,1.6-2.5s1.5-1.2,2.5-1.6c1-0.4,2-0.6,3.1-0.6
		c1.1,0,2.1,0.2,3,0.6c1,0.4,1.8,1,2.5,1.6c0.7,0.7,1.2,1.5,1.6,2.5c0.4,1,0.6,2,0.6,3c0,1.1-0.2,2.1-0.6,3c-0.4,0.9-1,1.7-1.6,2.4
		c-0.7,0.7-1.5,1.2-2.5,1.6c-1,0.4-2,0.6-3,0.6c-1.1,0-2.1-0.2-3.1-0.6c-1-0.4-1.8-0.9-2.5-1.6c-0.7-0.7-1.2-1.5-1.6-2.4
		C646.1,97.7,645.9,96.7,645.9,95.6z"/>
	<path class="st0" d="M670.4,34c0-1.1,0.2-2.1,0.6-3c0.4-1,0.9-1.8,1.6-2.5s1.5-1.2,2.5-1.6c1-0.4,2-0.6,3.1-0.6
		c1.1,0,2.1,0.2,3,0.6c1,0.4,1.8,1,2.5,1.6c0.7,0.7,1.2,1.5,1.6,2.5c0.4,1,0.6,2,0.6,3c0,1.1-0.2,2.1-0.6,3c-0.4,0.9-1,1.7-1.6,2.4
		c-0.7,0.7-1.5,1.2-2.5,1.6c-1,0.4-2,0.6-3,0.6c-1.1,0-2.1-0.2-3.1-0.6c-1-0.4-1.8-0.9-2.5-1.6c-0.7-0.7-1.2-1.5-1.6-2.4
		C670.5,36.1,670.4,35.1,670.4,34z"/>
	<path class="st0" d="M684.4,50.1v52.5h-12.6V50.1H684.4z"/>
	<path class="st0" d="M717,49.3c3.9,0,7.5,0.6,10.7,1.9c3.2,1.3,5.9,3.1,8.2,5.4c2.2,2.3,4,5.1,5.2,8.5c1.2,3.3,1.8,7.1,1.8,11.2
		c0,4.2-0.6,7.9-1.8,11.3c-1.2,3.3-3,6.2-5.2,8.5c-2.3,2.4-5,4.2-8.2,5.4c-3.2,1.3-6.7,1.9-10.7,1.9c-3.9,0-7.5-0.6-10.7-1.9
		c-3.2-1.3-5.9-3.1-8.2-5.4c-2.3-2.4-4-5.2-5.3-8.5c-1.2-3.3-1.9-7.1-1.9-11.3c0-4.1,0.6-7.9,1.9-11.2c1.2-3.3,3-6.2,5.3-8.5
		c2.3-2.3,5-4.1,8.2-5.4C709.5,49.9,713.1,49.3,717,49.3z M717,93.6c4.4,0,7.6-1.5,9.7-4.4c2.1-2.9,3.1-7.2,3.1-12.9
		c0-5.7-1-10-3.1-12.9c-2.1-3-5.3-4.4-9.7-4.4c-4.4,0-7.7,1.5-9.8,4.5c-2.1,3-3.2,7.3-3.2,12.9c0,5.6,1.1,9.9,3.2,12.9
		C709.3,92.1,712.6,93.6,717,93.6z"/>
</g>
</svg>
